<mxfile host="app.diagrams.net" modified="2020-11-02T08:23:39.820Z" agent="5.0 (Macintosh; Intel Mac OS X 10_15_6) AppleWebKit/537.36 (KHTML, like Gecko) Chrome/86.0.4240.111 Safari/537.36" etag="8r4txP8gfzSwwhOF3rxe" version="13.8.0" type="github">
  <diagram id="hfV65MQg7ShOxVszni_t" name="第 1 页">
    <mxGraphModel dx="1298" dy="834" grid="0" gridSize="10" guides="1" tooltips="1" connect="1" arrows="1" fold="1" page="1" pageScale="1" pageWidth="827" pageHeight="1169" math="0" shadow="0">
      <root>
        <mxCell id="0" />
        <mxCell id="1" parent="0" />
        <mxCell id="0XDvWjUJgRNQDBUHq9uM-10" style="edgeStyle=orthogonalEdgeStyle;rounded=0;orthogonalLoop=1;jettySize=auto;html=1;exitX=0.5;exitY=1;exitDx=0;exitDy=0;" edge="1" parent="1" source="0XDvWjUJgRNQDBUHq9uM-1" target="0XDvWjUJgRNQDBUHq9uM-8">
          <mxGeometry relative="1" as="geometry" />
        </mxCell>
        <mxCell id="0XDvWjUJgRNQDBUHq9uM-1" value="beijing" style="rounded=0;whiteSpace=wrap;html=1;" vertex="1" parent="1">
          <mxGeometry x="64" y="293" width="70" height="30" as="geometry" />
        </mxCell>
        <mxCell id="0XDvWjUJgRNQDBUHq9uM-15" style="edgeStyle=orthogonalEdgeStyle;rounded=0;orthogonalLoop=1;jettySize=auto;html=1;exitX=0.5;exitY=1;exitDx=0;exitDy=0;entryX=0.5;entryY=0;entryDx=0;entryDy=0;entryPerimeter=0;" edge="1" parent="1" source="0XDvWjUJgRNQDBUHq9uM-2" target="0XDvWjUJgRNQDBUHq9uM-8">
          <mxGeometry relative="1" as="geometry" />
        </mxCell>
        <mxCell id="0XDvWjUJgRNQDBUHq9uM-2" value="us-west" style="rounded=0;whiteSpace=wrap;html=1;" vertex="1" parent="1">
          <mxGeometry x="694" y="293" width="70" height="30" as="geometry" />
        </mxCell>
        <mxCell id="0XDvWjUJgRNQDBUHq9uM-14" style="edgeStyle=orthogonalEdgeStyle;rounded=0;orthogonalLoop=1;jettySize=auto;html=1;exitX=0.5;exitY=1;exitDx=0;exitDy=0;" edge="1" parent="1" source="0XDvWjUJgRNQDBUHq9uM-3" target="0XDvWjUJgRNQDBUHq9uM-8">
          <mxGeometry relative="1" as="geometry" />
        </mxCell>
        <mxCell id="0XDvWjUJgRNQDBUHq9uM-3" value="..." style="rounded=0;whiteSpace=wrap;html=1;" vertex="1" parent="1">
          <mxGeometry x="568" y="293" width="70" height="30" as="geometry" />
        </mxCell>
        <mxCell id="0XDvWjUJgRNQDBUHq9uM-11" style="edgeStyle=orthogonalEdgeStyle;rounded=0;orthogonalLoop=1;jettySize=auto;html=1;exitX=0.5;exitY=1;exitDx=0;exitDy=0;" edge="1" parent="1" source="0XDvWjUJgRNQDBUHq9uM-4" target="0XDvWjUJgRNQDBUHq9uM-8">
          <mxGeometry relative="1" as="geometry" />
        </mxCell>
        <mxCell id="0XDvWjUJgRNQDBUHq9uM-4" value="hangzhou" style="rounded=0;whiteSpace=wrap;html=1;" vertex="1" parent="1">
          <mxGeometry x="190" y="293" width="70" height="30" as="geometry" />
        </mxCell>
        <mxCell id="0XDvWjUJgRNQDBUHq9uM-12" style="edgeStyle=orthogonalEdgeStyle;rounded=0;orthogonalLoop=1;jettySize=auto;html=1;exitX=0.5;exitY=1;exitDx=0;exitDy=0;" edge="1" parent="1" source="0XDvWjUJgRNQDBUHq9uM-5" target="0XDvWjUJgRNQDBUHq9uM-8">
          <mxGeometry relative="1" as="geometry" />
        </mxCell>
        <mxCell id="0XDvWjUJgRNQDBUHq9uM-5" value="shanghai" style="rounded=0;whiteSpace=wrap;html=1;" vertex="1" parent="1">
          <mxGeometry x="316" y="293" width="70" height="30" as="geometry" />
        </mxCell>
        <mxCell id="0XDvWjUJgRNQDBUHq9uM-13" style="edgeStyle=orthogonalEdgeStyle;rounded=0;orthogonalLoop=1;jettySize=auto;html=1;exitX=0.5;exitY=1;exitDx=0;exitDy=0;" edge="1" parent="1" source="0XDvWjUJgRNQDBUHq9uM-6" target="0XDvWjUJgRNQDBUHq9uM-8">
          <mxGeometry relative="1" as="geometry" />
        </mxCell>
        <mxCell id="0XDvWjUJgRNQDBUHq9uM-6" value="..." style="rounded=0;whiteSpace=wrap;html=1;" vertex="1" parent="1">
          <mxGeometry x="442" y="293" width="70" height="30" as="geometry" />
        </mxCell>
        <mxCell id="0XDvWjUJgRNQDBUHq9uM-23" style="edgeStyle=orthogonalEdgeStyle;rounded=0;orthogonalLoop=1;jettySize=auto;html=1;exitX=0.5;exitY=1;exitDx=0;exitDy=0;exitPerimeter=0;entryX=0.5;entryY=0;entryDx=0;entryDy=0;" edge="1" parent="1" source="0XDvWjUJgRNQDBUHq9uM-8" target="0XDvWjUJgRNQDBUHq9uM-22">
          <mxGeometry relative="1" as="geometry" />
        </mxCell>
        <mxCell id="0XDvWjUJgRNQDBUHq9uM-27" style="edgeStyle=orthogonalEdgeStyle;rounded=0;orthogonalLoop=1;jettySize=auto;html=1;exitX=0;exitY=0.5;exitDx=0;exitDy=0;exitPerimeter=0;entryX=1;entryY=0.25;entryDx=0;entryDy=0;endArrow=none;endFill=0;dashed=1;" edge="1" parent="1" source="0XDvWjUJgRNQDBUHq9uM-8" target="0XDvWjUJgRNQDBUHq9uM-26">
          <mxGeometry relative="1" as="geometry" />
        </mxCell>
        <mxCell id="0XDvWjUJgRNQDBUHq9uM-8" value="中心库&lt;br&gt;" style="shape=cylinder3;whiteSpace=wrap;html=1;boundedLbl=1;backgroundOutline=1;size=15;" vertex="1" parent="1">
          <mxGeometry x="373" y="443" width="70" height="60" as="geometry" />
        </mxCell>
        <mxCell id="0XDvWjUJgRNQDBUHq9uM-9" value="&lt;span style=&quot;color: rgb(0 , 0 , 0) ; font-family: &amp;#34;helvetica&amp;#34; ; font-size: 12px ; font-style: normal ; font-weight: 400 ; letter-spacing: normal ; text-align: center ; text-indent: 0px ; text-transform: none ; word-spacing: 0px ; background-color: rgb(248 , 249 , 250) ; display: inline ; float: none&quot;&gt;region: wulanchabu&lt;br&gt;project: sls-ops-summary&lt;br&gt;logstore: sls_user_metrics&lt;/span&gt;" style="text;whiteSpace=wrap;html=1;" vertex="1" parent="1">
          <mxGeometry x="456" y="447.5" width="190" height="51" as="geometry" />
        </mxCell>
        <mxCell id="0XDvWjUJgRNQDBUHq9uM-17" value="" style="aspect=fixed;html=1;points=[];align=center;image;fontSize=12;image=img/lib/mscae/Clock.svg;" vertex="1" parent="1">
          <mxGeometry x="468" y="398" width="20" height="20" as="geometry" />
        </mxCell>
        <mxCell id="0XDvWjUJgRNQDBUHq9uM-19" value="采集指标" style="rounded=1;whiteSpace=wrap;html=1;fillColor=#d5e8d4;strokeColor=#82b366;" vertex="1" parent="1">
          <mxGeometry x="348" y="393" width="120" height="30" as="geometry" />
        </mxCell>
        <mxCell id="0XDvWjUJgRNQDBUHq9uM-24" style="edgeStyle=orthogonalEdgeStyle;rounded=0;orthogonalLoop=1;jettySize=auto;html=1;exitX=0.5;exitY=1;exitDx=0;exitDy=0;" edge="1" parent="1" source="0XDvWjUJgRNQDBUHq9uM-22">
          <mxGeometry relative="1" as="geometry">
            <mxPoint x="408" y="586" as="targetPoint" />
          </mxGeometry>
        </mxCell>
        <mxCell id="0XDvWjUJgRNQDBUHq9uM-22" value="统计/分析" style="rounded=1;whiteSpace=wrap;html=1;fillColor=#d5e8d4;strokeColor=#82b366;" vertex="1" parent="1">
          <mxGeometry x="348" y="529" width="120" height="30" as="geometry" />
        </mxCell>
        <mxCell id="0XDvWjUJgRNQDBUHq9uM-25" value="用户画像" style="ellipse;whiteSpace=wrap;html=1;" vertex="1" parent="1">
          <mxGeometry x="348" y="585" width="120" height="50" as="geometry" />
        </mxCell>
        <mxCell id="0XDvWjUJgRNQDBUHq9uM-26" value="外部关联数据&lt;br&gt;（如营收等）" style="shape=document;whiteSpace=wrap;html=1;boundedLbl=1;" vertex="1" parent="1">
          <mxGeometry x="199" y="461" width="97" height="47" as="geometry" />
        </mxCell>
        <mxCell id="0XDvWjUJgRNQDBUHq9uM-33" style="edgeStyle=orthogonalEdgeStyle;rounded=0;orthogonalLoop=1;jettySize=auto;html=1;exitX=1;exitY=0.5;exitDx=0;exitDy=0;entryX=0;entryY=0.5;entryDx=0;entryDy=0;dashed=1;endArrow=classic;endFill=1;" edge="1" parent="1" source="0XDvWjUJgRNQDBUHq9uM-28" target="0XDvWjUJgRNQDBUHq9uM-29">
          <mxGeometry relative="1" as="geometry" />
        </mxCell>
        <mxCell id="0XDvWjUJgRNQDBUHq9uM-28" value="定义指标" style="rounded=1;whiteSpace=wrap;html=1;fillColor=#cce5ff;strokeColor=#36393d;" vertex="1" parent="1">
          <mxGeometry x="64" y="146" width="90" height="34" as="geometry" />
        </mxCell>
        <mxCell id="0XDvWjUJgRNQDBUHq9uM-34" style="edgeStyle=orthogonalEdgeStyle;rounded=0;orthogonalLoop=1;jettySize=auto;html=1;exitX=1;exitY=0.5;exitDx=0;exitDy=0;entryX=0;entryY=0.5;entryDx=0;entryDy=0;dashed=1;endArrow=classic;endFill=1;" edge="1" parent="1" source="0XDvWjUJgRNQDBUHq9uM-29" target="0XDvWjUJgRNQDBUHq9uM-30">
          <mxGeometry relative="1" as="geometry" />
        </mxCell>
        <mxCell id="0XDvWjUJgRNQDBUHq9uM-29" value="采集" style="rounded=1;whiteSpace=wrap;html=1;fillColor=#ffff88;strokeColor=#36393d;" vertex="1" parent="1">
          <mxGeometry x="217" y="146" width="90" height="34" as="geometry" />
        </mxCell>
        <mxCell id="0XDvWjUJgRNQDBUHq9uM-35" style="edgeStyle=orthogonalEdgeStyle;rounded=0;orthogonalLoop=1;jettySize=auto;html=1;exitX=1;exitY=0.5;exitDx=0;exitDy=0;entryX=0;entryY=0.5;entryDx=0;entryDy=0;dashed=1;endArrow=classic;endFill=1;" edge="1" parent="1" source="0XDvWjUJgRNQDBUHq9uM-30" target="0XDvWjUJgRNQDBUHq9uM-31">
          <mxGeometry relative="1" as="geometry" />
        </mxCell>
        <mxCell id="0XDvWjUJgRNQDBUHq9uM-30" value="汇总" style="rounded=1;whiteSpace=wrap;html=1;fillColor=#cdeb8b;strokeColor=#36393d;" vertex="1" parent="1">
          <mxGeometry x="369" y="146" width="90" height="34" as="geometry" />
        </mxCell>
        <mxCell id="0XDvWjUJgRNQDBUHq9uM-36" style="edgeStyle=orthogonalEdgeStyle;rounded=0;orthogonalLoop=1;jettySize=auto;html=1;exitX=1;exitY=0.5;exitDx=0;exitDy=0;entryX=0;entryY=0.5;entryDx=0;entryDy=0;dashed=1;endArrow=classic;endFill=1;" edge="1" parent="1" source="0XDvWjUJgRNQDBUHq9uM-31" target="0XDvWjUJgRNQDBUHq9uM-32">
          <mxGeometry relative="1" as="geometry" />
        </mxCell>
        <mxCell id="0XDvWjUJgRNQDBUHq9uM-31" value="统计分析" style="rounded=1;whiteSpace=wrap;html=1;fillColor=#ffcccc;strokeColor=#36393d;" vertex="1" parent="1">
          <mxGeometry x="522" y="146" width="90" height="34" as="geometry" />
        </mxCell>
        <mxCell id="0XDvWjUJgRNQDBUHq9uM-32" value="刻画用户画像" style="rounded=1;whiteSpace=wrap;html=1;fillColor=#ffcc99;strokeColor=#36393d;" vertex="1" parent="1">
          <mxGeometry x="674" y="146" width="90" height="34" as="geometry" />
        </mxCell>
      </root>
    </mxGraphModel>
  </diagram>
</mxfile>
